<svg width="18" height="18" viewBox="0 0 18 18" fill="none" xmlns="http://www.w3.org/2000/svg">
<path d="M14.0997 11V17M11.0997 14H17.0997M13.4997 7H14.6997C15.5398 7 15.9598 7 16.2807 6.83651C16.563 6.6927 16.7924 6.46323 16.9362 6.18099C17.0997 5.86012 17.0997 5.44008 17.0997 4.6V3.4C17.0997 2.55992 17.0997 2.13988 16.9362 1.81901C16.7924 1.53677 16.563 1.3073 16.2807 1.16349C15.9598 1 15.5398 1 14.6997 1H13.4997C12.6597 1 12.2396 1 11.9187 1.16349C11.6365 1.3073 11.407 1.53677 11.2632 1.81901C11.0997 2.13988 11.0997 2.55992 11.0997 3.4V4.6C11.0997 5.44008 11.0997 5.86012 11.2632 6.18099C11.407 6.46323 11.6365 6.6927 11.9187 6.83651C12.2396 7 12.6597 7 13.4997 7ZM3.49973 7H4.69973C5.53981 7 5.95985 7 6.28072 6.83651C6.56296 6.6927 6.79243 6.46323 6.93624 6.18099C7.09973 5.86012 7.09973 5.44008 7.09973 4.6V3.4C7.09973 2.55992 7.09973 2.13988 6.93624 1.81901C6.79243 1.53677 6.56296 1.3073 6.28072 1.16349C5.95985 1 5.53981 1 4.69973 1H3.49973C2.65965 1 2.23961 1 1.91875 1.16349C1.6365 1.3073 1.40703 1.53677 1.26322 1.81901C1.09973 2.13988 1.09973 2.55992 1.09973 3.4V4.6C1.09973 5.44008 1.09973 5.86012 1.26322 6.18099C1.40703 6.46323 1.6365 6.6927 1.91875 6.83651C2.23961 7 2.65965 7 3.49973 7ZM3.49973 17H4.69973C5.53981 17 5.95985 17 6.28072 16.8365C6.56296 16.6927 6.79243 16.4632 6.93624 16.181C7.09973 15.8601 7.09973 15.4401 7.09973 14.6V13.4C7.09973 12.5599 7.09973 12.1399 6.93624 11.819C6.79243 11.5368 6.56296 11.3073 6.28072 11.1635C5.95985 11 5.53981 11 4.69973 11H3.49973C2.65965 11 2.23961 11 1.91875 11.1635C1.6365 11.3073 1.40703 11.5368 1.26322 11.819C1.09973 12.1399 1.09973 12.5599 1.09973 13.4V14.6C1.09973 15.4401 1.09973 15.8601 1.26322 16.181C1.40703 16.4632 1.6365 16.6927 1.91875 16.8365C2.23961 17 2.65965 17 3.49973 17Z" stroke="#B3B3B3" stroke-width="1.5" stroke-linecap="round" stroke-linejoin="round"/>
</svg>
