<svg width="18" height="20" viewBox="0 0 18 20" fill="none" xmlns="http://www.w3.org/2000/svg">
<path d="M1 4H17M13 4L12.7294 3.18807C12.4671 2.40125 12.3359 2.00784 12.0927 1.71698C11.8779 1.46013 11.6021 1.26132 11.2905 1.13878C10.9376 1 10.523 1 9.69357 1H8.30643C7.47705 1 7.06236 1 6.70951 1.13878C6.39792 1.26132 6.12208 1.46013 5.90729 1.71698C5.66405 2.00784 5.53292 2.40125 5.27064 3.18807L5 4M15 4V14.2C15 15.8802 15 16.7202 14.673 17.362C14.3854 17.9265 13.9265 18.3854 13.362 18.673C12.7202 19 11.8802 19 10.2 19H7.8C6.11984 19 5.27976 19 4.63803 18.673C4.07354 18.3854 3.6146 17.9265 3.32698 17.362C3 16.7202 3 15.8802 3 14.2V4M11 8V15M7 8V15" stroke="#FE5E2C" stroke-width="2" stroke-linecap="round" stroke-linejoin="round"/>
</svg>
