<svg width="13" height="15" viewBox="0 0 13 15" fill="none" xmlns="http://www.w3.org/2000/svg">
<path d="M0.833008 3.25H12.1663M9.33301 3.25L9.1413 2.67488C8.95552 2.11755 8.86264 1.83889 8.69034 1.63286C8.5382 1.45093 8.34282 1.3101 8.12211 1.2233C7.87217 1.125 7.57843 1.125 6.99095 1.125H6.0084C5.42092 1.125 5.12718 1.125 4.87724 1.2233C4.65653 1.3101 4.46115 1.45093 4.309 1.63286C4.13671 1.83889 4.04382 2.11755 3.85805 2.67488L3.66634 3.25M10.7497 3.25V10.475C10.7497 11.6651 10.7497 12.2602 10.5181 12.7147C10.3143 13.1146 9.98925 13.4397 9.5894 13.6434C9.13484 13.875 8.53979 13.875 7.34967 13.875H5.64967C4.45956 13.875 3.86451 13.875 3.40994 13.6434C3.0101 13.4397 2.68502 13.1146 2.48129 12.7147C2.24967 12.2602 2.24967 11.6651 2.24967 10.475V3.25M7.91634 6.08333V11.0417M5.08301 6.08333V11.0417" stroke="#B3B3B3" stroke-linecap="round" stroke-linejoin="round"/>
</svg>
