<svg width="23" height="23" viewBox="0 0 23 23" fill="none" xmlns="http://www.w3.org/2000/svg">
<rect width="23" height="23" rx="11.5" fill="#BACC4A"/>
<path d="M9.625 11.5L10.4225 12.2975C10.5809 12.4559 10.6601 12.5351 10.7514 12.5647C10.8317 12.5908 10.9183 12.5908 10.9986 12.5647C11.0899 12.5351 11.1691 12.4559 11.3275 12.2975L13.375 10.25M9.95672 6.95484L9.29482 6.78471C9.08182 6.72996 8.97532 6.70259 8.88274 6.72266C8.80127 6.74033 8.72736 6.783 8.67134 6.84471C8.60766 6.91486 8.57811 7.02078 8.51903 7.23261L8.33542 7.8909C8.30006 8.01767 8.28238 8.08105 8.24834 8.13299C8.21823 8.17896 8.17896 8.21823 8.13299 8.24834C8.08105 8.28238 8.01767 8.30006 7.8909 8.33542L7.23261 8.51903C7.02078 8.57811 6.91486 8.60766 6.84471 8.67134C6.783 8.72736 6.74033 8.80127 6.72266 8.88274C6.70259 8.97532 6.72996 9.08182 6.78471 9.29482L6.95484 9.95672C6.9876 10.0842 7.00398 10.1479 7.00048 10.2099C6.99738 10.2648 6.98301 10.3184 6.95826 10.3675C6.93029 10.4229 6.88424 10.4699 6.79213 10.5639L6.31385 11.0521C6.15994 11.2092 6.08298 11.2877 6.05407 11.3779C6.02864 11.4573 6.02864 11.5427 6.05407 11.6221C6.08298 11.7123 6.15994 11.7908 6.31385 11.9479L6.79213 12.4361C6.88424 12.5301 6.93029 12.5771 6.95826 12.6325C6.98301 12.6816 6.99738 12.7352 7.00048 12.7901C7.00398 12.8521 6.9876 12.9158 6.95484 13.0433L6.78471 13.7052C6.72996 13.9182 6.70259 14.0247 6.72266 14.1173C6.74033 14.1987 6.783 14.2726 6.84471 14.3287C6.91486 14.3923 7.02078 14.4219 7.23261 14.481L7.8909 14.6646C8.01767 14.6999 8.08105 14.7176 8.13299 14.7517C8.17896 14.7818 8.21823 14.821 8.24834 14.867C8.28238 14.9189 8.30006 14.9823 8.33542 15.1091L8.51903 15.7674C8.57811 15.9792 8.60766 16.0851 8.67134 16.1553C8.72736 16.217 8.80127 16.2597 8.88274 16.2773C8.97532 16.2974 9.08182 16.27 9.29482 16.2153L9.95672 16.0452C10.0842 16.0124 10.1479 15.996 10.2099 15.9995C10.2648 16.0026 10.3184 16.017 10.3675 16.0417C10.4229 16.0697 10.4699 16.1158 10.5639 16.2079L11.0521 16.6862C11.2092 16.8401 11.2877 16.917 11.3779 16.9459C11.4573 16.9714 11.5427 16.9714 11.6221 16.9459C11.7123 16.917 11.7908 16.8401 11.9479 16.6862L12.4361 16.2079C12.5301 16.1158 12.5771 16.0697 12.6325 16.0417C12.6816 16.017 12.7352 16.0026 12.7901 15.9995C12.8521 15.996 12.9158 16.0124 13.0433 16.0452L13.7052 16.2153C13.9182 16.27 14.0247 16.2974 14.1173 16.2773C14.1987 16.2597 14.2726 16.217 14.3287 16.1553C14.3923 16.0851 14.4219 15.9792 14.481 15.7674L14.6646 15.1091C14.6999 14.9823 14.7176 14.9189 14.7517 14.867C14.7818 14.821 14.821 14.7818 14.867 14.7517C14.9189 14.7176 14.9823 14.6999 15.1091 14.6646L15.7674 14.481C15.9792 14.4219 16.0851 14.3923 16.1553 14.3287C16.217 14.2726 16.2597 14.1987 16.2773 14.1173C16.2974 14.0247 16.27 13.9182 16.2153 13.7052L16.0452 13.0433C16.0124 12.9158 15.996 12.8521 15.9995 12.7901C16.0026 12.7352 16.017 12.6816 16.0417 12.6325C16.0697 12.5771 16.1158 12.5301 16.2079 12.4361L16.6862 11.9479C16.8401 11.7908 16.917 11.7123 16.9459 11.6221C16.9714 11.5427 16.9714 11.4573 16.9459 11.3779C16.917 11.2877 16.8401 11.2092 16.6862 11.0521L16.2079 10.5639C16.1158 10.4699 16.0697 10.4229 16.0417 10.3675C16.017 10.3184 16.0026 10.2648 15.9995 10.2099C15.996 10.1479 16.0124 10.0842 16.0452 9.95672L16.2153 9.29482C16.27 9.08182 16.2974 8.97532 16.2773 8.88274C16.2597 8.80127 16.217 8.72736 16.1553 8.67134C16.0851 8.60766 15.9792 8.57811 15.7674 8.51903L15.1091 8.33542C14.9823 8.30006 14.9189 8.28238 14.867 8.24834C14.821 8.21823 14.7818 8.17896 14.7517 8.13299C14.7176 8.08105 14.6999 8.01767 14.6646 7.8909L14.481 7.23261C14.4219 7.02078 14.3923 6.91486 14.3287 6.84471C14.2726 6.783 14.1987 6.74033 14.1173 6.72266C14.0247 6.70259 13.9182 6.72996 13.7052 6.78471L13.0433 6.95484C12.9158 6.9876 12.8521 7.00398 12.7901 7.00048C12.7352 6.99738 12.6816 6.98301 12.6325 6.95826C12.5771 6.93029 12.5301 6.88424 12.4361 6.79213L11.9479 6.31385C11.7908 6.15994 11.7123 6.08298 11.6221 6.05407C11.5427 6.02864 11.4573 6.02864 11.3779 6.05407C11.2877 6.08298 11.2092 6.15994 11.0521 6.31385L10.5639 6.79213C10.4699 6.88424 10.4229 6.93029 10.3675 6.95826C10.3184 6.98301 10.2648 6.99738 10.2099 7.00048C10.1479 7.00398 10.0842 6.9876 9.95672 6.95484Z" stroke="black" stroke-linecap="round" stroke-linejoin="round"/>
</svg>
