<svg width="21" height="20" viewBox="0 0 21 20" fill="none" xmlns="http://www.w3.org/2000/svg">
<path d="M17.7 7.77794V14.1998C17.7 15.88 17.7 16.7201 17.373 17.3618C17.0854 17.9263 16.6264 18.3852 16.0619 18.6729C15.4202 18.9998 14.5801 18.9998 12.9 18.9998H8.49995C6.81979 18.9998 5.97971 18.9998 5.33798 18.6729C4.77349 18.3852 4.31455 17.9263 4.02693 17.3618C3.69995 16.7201 3.69995 15.88 3.69995 14.1998V7.77728M19.7 9.99983L14.2667 3.96381C13.031 2.59104 12.4132 1.90466 11.6856 1.65126C11.0465 1.4287 10.3509 1.42875 9.71188 1.65141C8.9843 1.90491 8.36656 2.59139 7.13109 3.96433L1.69995 9.99983M12.7 9.99983C12.7 11.1044 11.8045 11.9998 10.7 11.9998C9.59538 11.9998 8.69995 11.1044 8.69995 9.99983C8.69995 8.89526 9.59538 7.99983 10.7 7.99983C11.8045 7.99983 12.7 8.89526 12.7 9.99983Z" stroke="#B3B3B3" stroke-width="1.5" stroke-linecap="round" stroke-linejoin="round"/>
</svg>
