<svg width="17" height="17" viewBox="0 0 17 17" fill="none" xmlns="http://www.w3.org/2000/svg">
<path d="M2.11523 14.8809L1.62026 14.8102C1.59682 14.9742 1.65619 15.1393 1.77877 15.2508C1.90136 15.3623 2.07123 15.4058 2.23233 15.367L2.11523 14.8809ZM4.07218 10.799L3.71871 10.4453L3.71862 10.4454L4.07218 10.799ZM2.9504 12.0324L2.53559 11.7532L2.9504 12.0324ZM2.14885 14.6456L1.65387 14.5749L2.14885 14.6456ZM2.46252 13.0082L1.99031 12.8438L2.46252 13.0082ZM5.94848 12.9296L5.59501 12.576L5.59492 12.5761L5.94848 12.9296ZM4.90731 13.8894L4.6165 13.4827L4.90731 13.8894ZM2.7327 14.7322L2.61561 14.2461H2.61561L2.7327 14.7322ZM4.09481 14.3449L4.29002 14.8052L4.09481 14.3449ZM14.3357 2.54286L14.6893 2.18931V2.18931L14.3357 2.54286ZM14.3357 4.54633L14.6892 4.89997L14.6893 4.89988L14.3357 4.54633ZM12.3323 2.54286L12.6857 2.8965L12.6858 2.89642L12.3323 2.54286ZM9.20877 14.3752C8.93263 14.3752 8.70877 14.599 8.70877 14.8752C8.70877 15.1513 8.93263 15.3752 9.20877 15.3752V14.3752ZM14.8754 15.3752C15.1516 15.3752 15.3754 15.1513 15.3754 14.8752C15.3754 14.599 15.1516 14.3752 14.8754 14.3752V15.3752ZM13.9823 4.19269L5.59501 12.576L6.30195 13.2832L14.6892 4.89997L13.9823 4.19269ZM4.42564 11.1526L12.6857 2.8965L11.9788 2.18922L3.71871 10.4453L4.42564 11.1526ZM2.61021 14.9516L2.64382 14.7163L1.65387 14.5749L1.62026 14.8102L2.61021 14.9516ZM2.61561 14.2461L1.99813 14.3948L2.23233 15.367L2.8498 15.2183L2.61561 14.2461ZM10.5817 4.29242L12.5824 6.29866L13.2905 5.59253L11.2898 3.5863L10.5817 4.29242ZM3.71862 10.4454C3.13738 11.0267 2.7986 11.3624 2.53559 11.7532L3.36522 12.3115C3.56171 12.0196 3.81761 11.7606 4.42573 11.1525L3.71862 10.4454ZM2.64382 14.7163C2.76544 13.865 2.81905 13.5049 2.93474 13.1725L1.99031 12.8438C1.83545 13.2887 1.77012 13.7612 1.65387 14.5749L2.64382 14.7163ZM2.53559 11.7532C2.30773 12.0918 2.12446 12.4584 1.99031 12.8438L2.93474 13.1725C3.04065 12.8682 3.18533 12.5789 3.36522 12.3115L2.53559 11.7532ZM5.59492 12.5761C5.07975 13.0912 4.86058 13.3082 4.6165 13.4827L5.19811 14.2962C5.52474 14.0626 5.80945 13.7757 6.30203 13.2832L5.59492 12.5761ZM2.8498 15.2183C3.52705 15.0551 3.92037 14.962 4.29002 14.8052L3.8996 13.8846C3.62337 14.0017 3.32392 14.0754 2.61561 14.2461L2.8498 15.2183ZM4.6165 13.4827C4.39298 13.6425 4.15257 13.7773 3.8996 13.8846L4.29002 14.8052C4.61045 14.6693 4.91497 14.4986 5.19811 14.2962L4.6165 13.4827ZM13.9822 2.89641C14.3402 3.25439 14.3402 3.8348 13.9822 4.19278L14.6893 4.89988C15.4378 4.15138 15.4378 2.93781 14.6893 2.18931L13.9822 2.89641ZM14.6893 2.18931C13.9408 1.4408 12.7272 1.44081 11.9787 2.18931L12.6858 2.89642C13.0438 2.53843 13.6242 2.53843 13.9822 2.89641L14.6893 2.18931ZM9.20877 15.3752H14.8754V14.3752H9.20877V15.3752Z" fill="#D9D9D9"/>
</svg>
