<svg width="15" height="15" viewBox="0 0 15 15" fill="none" xmlns="http://www.w3.org/2000/svg">
<path d="M9.93578 2.93936L11.9365 4.9456M1.11523 13.8809C1.20445 13.2564 1.25416 12.6068 1.46252 12.0082C1.58256 11.6633 1.74653 11.3353 1.9504 11.0324C2.18015 10.691 2.47749 10.3936 3.07218 9.79897L11.3323 1.54286C11.8855 0.98962 12.7825 0.989618 13.3357 1.54286C13.889 2.0961 13.889 2.99309 13.3357 3.54633L4.94848 11.9296C4.4446 12.4335 4.19266 12.6854 3.90731 12.8894C3.65398 13.0706 3.38151 13.2233 3.09481 13.3449C2.46875 13.6104 1.77488 13.722 1.11523 13.8809Z" stroke="#B3B3B3" stroke-linejoin="round"/>
</svg>
