<svg width="16" height="19" viewBox="0 0 16 19" fill="none" xmlns="http://www.w3.org/2000/svg">
<path d="M0.899902 4.2C0.899902 3.07989 0.899902 2.51984 1.11789 2.09202C1.30964 1.71569 1.6156 1.40973 1.99192 1.21799C2.41974 1 2.9798 1 4.0999 1H11.6999C12.82 1 13.3801 1 13.8079 1.21799C14.1842 1.40973 14.4902 1.71569 14.6819 2.09202C14.8999 2.51984 14.8999 3.07989 14.8999 4.2V15.8909C14.8999 16.8955 14.8999 17.3978 14.6915 17.6678C14.5101 17.9028 14.2337 18.0451 13.937 18.0561C13.5962 18.0688 13.1874 17.7768 12.3699 17.1929L7.8999 14L3.42988 17.1929C2.61239 17.7768 2.20364 18.0688 1.86285 18.0561C1.56614 18.0451 1.28967 17.9028 1.10827 17.6678C0.899902 17.3978 0.899902 16.8955 0.899902 15.8909V4.2Z" stroke="#B3B3B3" stroke-width="1.5" stroke-linecap="round" stroke-linejoin="round"/>
</svg>
