<svg width="58" height="40" viewBox="0 0 58 40" fill="none" xmlns="http://www.w3.org/2000/svg">
<g clip-path="url(#clip0_2716_2736)">
<path d="M38.6655 19.3717C33.3622 16.589 28.2843 14.0308 23.0938 11.3599V27.3381C28.5558 24.4228 34.313 21.7529 38.688 19.3717H38.6655Z" fill="white"/>
<path d="M38.6655 19.3717C33.3622 16.589 23.0938 11.3599 23.0938 11.3599L36.7844 20.3947C36.7844 20.3947 34.2905 21.7529 38.6655 19.3717Z" fill="#E8E0E0"/>
<path d="M24.0924 39.8459C13.077 39.6467 9.31473 39.4676 7.0022 38.9998C5.43762 38.689 4.078 37.9989 3.08109 36.9979C2.31061 36.2404 1.69786 35.0845 1.22248 33.4809C0.814703 32.1449 0.655884 31.0333 0.42946 28.3181C0.0828486 22.1902 0.000219896 17.1802 0.42946 11.5823C0.783583 8.49092 0.955279 4.82113 3.30751 2.68015C4.41817 1.67815 5.71019 1.03333 7.16102 0.76676C9.42741 0.344255 19.0832 0.0102539 29.0791 0.0102539C39.0525 0.0102539 48.7297 0.344255 50.9982 0.76676C52.8107 1.10076 54.5105 2.10171 55.5085 3.3924C57.6547 6.70712 57.6922 10.8289 57.9101 14.053C58.0002 15.5892 58.0002 24.3122 57.9101 25.8484C57.571 30.9438 57.2984 32.7465 56.5279 34.6157C56.0515 35.7957 55.6448 36.4184 54.9408 37.1085C53.8368 38.1706 52.4293 38.877 50.906 39.1336C41.3736 39.8374 33.2792 39.9902 24.0924 39.8459ZM38.6898 19.3717C33.3865 16.5891 28.3086 14.0088 23.118 11.3378V27.3172C28.5801 24.4018 34.3384 21.7308 38.7123 19.3496L38.6898 19.3717Z" fill="#CD201F"/>
</g>
<defs>
<clipPath id="clip0_2716_2736">
<rect width="58" height="40" fill="white"/>
</clipPath>
</defs>
</svg>
